<?xml version="1.0" encoding="UTF-8"?>
<svg id="_图层_2" data-name="图层 2" xmlns="http://www.w3.org/2000/svg" viewBox="0 0 1080 1080">
  <defs>
    <style>
      .cls-1 {
        fill: #fff;
      }
    </style>
  </defs>
  <g id="_图层_1-2" data-name="图层 1">
    <path class="cls-1" d="M540,1080c-73.8,0-143.55-14.18-209.25-42.55-65.7-28.37-123.07-67.07-172.1-116.1-49.03-49.03-87.73-106.4-116.1-172.1C14.18,683.55,0,613.8,0,540s14.18-144.67,42.55-209.9c28.37-65.23,67.07-122.38,116.1-171.45,49.03-49.07,106.4-87.77,172.1-116.1C396.45,14.22,466.2.04,540,0c74.7,0,144.68,14.18,209.95,42.55,65.27,28.37,122.4,67.07,171.4,116.1,49,49.03,87.7,106.18,116.1,171.45,28.4,65.27,42.59,135.23,42.55,209.9,0,73.8-14.18,143.55-42.55,209.25s-67.07,123.08-116.1,172.15c-49.03,49.07-106.18,87.77-171.45,116.1-65.27,28.33-135.23,42.5-209.9,42.5M540,969.3c23.4-32.4,43.65-66.15,60.75-101.25,17.1-35.1,31.05-72.45,41.85-112.05h-205.2c10.8,39.6,24.75,76.95,41.85,112.05,17.1,35.1,37.35,68.85,60.75,101.25M399.6,947.7c-16.2-29.7-30.37-60.53-42.5-92.5-12.13-31.97-22.27-65.03-30.4-99.2h-159.3c26.1,45,58.73,84.15,97.9,117.45,39.17,33.3,83.93,58.05,134.3,74.25M680.4,947.7c50.4-16.2,95.18-40.95,134.35-74.25,39.17-33.3,71.78-72.45,97.85-117.45h-159.3c-8.1,34.2-18.22,67.28-30.35,99.25-12.13,31.97-26.32,62.78-42.55,92.45M121.5,648h183.6c-2.7-18-4.72-35.77-6.05-53.3-1.33-17.53-2.02-35.77-2.05-54.7-.04-18.94.65-37.15,2.05-54.65,1.4-17.5,3.42-35.28,6.05-53.35H121.5c-4.5,18-7.87,35.78-10.1,53.35-2.23,17.57-3.37,35.78-3.4,54.65-.04,18.86,1.1,37.1,3.4,54.7,2.3,17.6,5.67,35.37,10.1,53.3M413.1,648h253.8c2.7-18,4.73-35.77,6.1-53.3,1.37-17.53,2.03-35.77,2-54.7-.04-18.94-.72-37.15-2.05-54.65-1.33-17.5-3.35-35.28-6.05-53.35h-253.8c-2.7,18-4.72,35.78-6.05,53.35-1.33,17.57-2.02,35.78-2.05,54.65-.04,18.86.65,37.1,2.05,54.7,1.4,17.6,3.42,35.37,6.05,53.3M774.9,648h183.6c4.5-18,7.88-35.77,10.15-53.3s3.38-35.77,3.35-54.7-1.15-37.15-3.35-54.65c-2.2-17.5-5.58-35.28-10.15-53.35h-183.6c2.7,18,4.73,35.78,6.1,53.35,1.37,17.57,2.03,35.78,2,54.65s-.72,37.1-2.05,54.7-3.35,35.37-6.05,53.3M753.3,324h159.3c-26.1-45-58.72-84.15-97.85-117.45-39.13-33.3-83.92-58.05-134.35-74.25,16.2,29.7,30.38,60.53,42.55,92.5,12.17,31.97,22.28,65.03,30.35,99.2M437.4,324h205.2c-10.8-39.6-24.75-76.95-41.85-112.05-17.1-35.1-37.35-68.85-60.75-101.25-23.4,32.4-43.65,66.15-60.75,101.25-17.1,35.1-31.05,72.45-41.85,112.05M167.4,324h159.3c8.1-34.2,18.23-67.28,30.4-99.25,12.17-31.97,26.33-62.78,42.5-92.45-50.4,16.2-95.18,40.95-134.35,74.25-39.17,33.3-71.78,72.45-97.85,117.45"/>
  </g>
</svg>