<?xml version="1.0" encoding="UTF-8"?>
<svg id="_图层_2" data-name="图层 2" xmlns="http://www.w3.org/2000/svg" viewBox="0 0 1057.04 1054.49">
  <defs>
    <style>
      .cls-1 {
        fill-rule: evenodd;
      }
    </style>
  </defs>
  <g id="_图层_1-2" data-name="图层 1">
    <path class="cls-1" d="M1025.85,195.14c18.82,7.51,31.17,25.72,31.18,45.98v572.25c-.02,20.26-12.36,38.47-31.18,45.98l-478.97,191.59c-11.81,4.72-24.99,4.72-36.8,0L31.12,859.36C12.32,851.83,0,833.62,0,813.38V241.12c0-20.24,12.32-38.45,31.12-45.98L491.72,10.89l.66-.2,17.71-7.13c11.83-4.74,25.03-4.74,36.86,0l17.77,7.13.66.2,460.47,184.25ZM687.34,130.86l-406.56,162.59-158.82-63.49-55.89,22.4v26.43l429.42,171.77v523.36l33.03,13.21,33.03-13.21V450.62l429.42-171.77v-26.43l-55.89-22.4-406.56,162.52-158.82-63.49,406.56-162.59-88.92-35.61Z"/>
  </g>
</svg>